<svg xmlns="http://www.w3.org/2000/svg" viewBox="0 0 256 256" aria-hidden="true">
  <rect width="256" height="256" fill="#3178c6" rx="16"/>
  <path fill="#fff" d="M56.6 128.85h47v13.6H86.7v48.04H70.5v-48.04H56.6v-13.6zm75.42 21.31q-1.74-1.5-4.04-2.7t-4.84-1.99q-2.55-.8-4.99-1.4-2.45-.6-4.49-1.45-2.05-.85-3.39-2.1-1.34-1.25-2.1-2.95-.74-1.7-.74-3.99 0-2.74 1.34-4.84 1.35-2.1 3.7-3.4 2.34-1.3 5.49-1.85 3.14-.55 6.34-.55 3.5 0 7.18.5 3.7.5 6.84 1.6v-15.49q-3.05-1.05-7.04-1.6-3.99-.55-9.08-.55-5.59 0-10.43 1.05t-8.78 3.5q-3.94 2.45-6.43 6.79-2.5 4.34-2.5 10.83 0 5.34 1.5 9.18 1.5 3.85 4 6.49 2.5 2.65 5.74 4.34 3.24 1.7 6.78 2.95 4.65 1.55 7.39 2.55 2.74 1 4.34 1.95 1.6.95 2.25 1.95.65 1 .65 2.4 0 1.6-.85 2.95-.85 1.35-2.34 2.34-1.5.99-3.65 1.55-2.15.55-4.84.55-3.49 0-7.93-.95-4.45-.95-9.78-3.7v17.34q3.5 1.5 7.93 2.4 4.44.9 11.88.9 5.74 0 10.78-1.05t8.83-3.5q3.79-2.45 5.99-6.84 2.2-4.39 2.2-11.18 0-3.69-1.2-6.74-1.2-3.05-3.39-5.34-2.2-2.3-5.34-4.2z"/>
</svg>
