<svg xmlns="http://www.w3.org/2000/svg" viewBox="0 0 256 264" aria-hidden="true">
  <path fill="#336791" d="M255.008 158.086c-1.535-4.649-5.556-7.85-10.756-8.539-2.452-.328-5.260-.187-8.578.439-5.781 1.087-10.066 1.5-13.183 1.626 11.755-19.819 21.314-42.413 26.819-63.638 8.91-34.337 4.171-49.974-1.401-57.052C233.155 12.279 211.046.93 184.351.605 170.118.434 157.624 3.244 151.156 5.62a76.345 76.345 0 0 0-9.295-.717c-7.122-.106-13.464.844-19.205 2.846-3.512-2.396-7.652-4.472-12.398-6.121C99.272-.973 87.382-.213 74.985 4.36 60.62 9.665 47.626 19.484 36.93 33.762 18.57 58.265-2.236 91.876.232 130.88c5.082 80.412 86.415 132.5 162.4 132.5 4.34 0 8.68-.255 13-.764 30.04-3.532 51.28-12.7 64.94-28.04 11.63-13.06 17.46-30.71 16.43-49.54.62-.21 1.27-.42 1.93-.65 6.46-2.21 12.68-4.93 18.28-7.99 7.69-4.21 13.51-9.05 17.31-14.4 5.86-8.27 5.62-15.65 4.27-19.92"/>
  <path fill="#fff" d="M196.398 124.97c-3.064.95-7.81 1.69-15.05.45-12.18-2.11-20.63-9.71-20.79-13.83.61-.83 7.4-3.33 13.31-3.61 9.45-.45 18.94 1.46 27.6 5.6.31.15.62.3.92.45-1.08 5.23-3.44 9.31-5.99 10.94zM67.99 25.66c-.5-.16-13.18-3.5-22.04 3.7-3.99 3.24-6.14 7.95-6.39 13.99-.07 1.61 1.13 2.94 2.71 3.07.16.01.32.02.48.02 1.51 0 2.81-1.13 3-2.66.46-3.66 2.04-6.21 4.69-7.62 3.6-1.92 8.5-1.07 11.55-.21.13.04.26.06.4.06 1.66 0 3.05-1.31 3.16-2.97.11-1.66-1.18-3.07-2.83-3.18zm83.86 16.56c-.59-.96-1.83-1.27-2.78-.69-3.42 2.12-7.73 1.49-11.31-1.62-1.16-1-3.05-.91-4.21.24l-15.6 15.6c-.59.59-.92 1.4-.92 2.24v18.5c-1.6 1.7-3.86 2.66-6.45 2.66-2.59 0-4.85-.96-6.45-2.66v-23.13c0-1.65-1.34-2.99-2.99-2.99H89.39c-1.65 0-2.99 1.34-2.99 2.99v74.34c0 1.65 1.34 2.99 2.99 2.99h11.65c1.65 0 2.99-1.34 2.99-2.99V109.06c4.39 3.79 9.92 5.85 15.83 5.85 5.91 0 11.44-2.06 15.83-5.85v17.34c0 1.65 1.34 2.99 2.99 2.99h11.65c1.65 0 2.99-1.34 2.99-2.99V52.06c4.85-2.39 8.46-7.39 9.43-13.5.16-1 .14-2.04-.07-3.06-.42-2.05-1.86-3.74-3.99-4.66-2.79-1.21-5.73-.5-7.83 1.36zm70.96 33.52c-1.78-1.07-3.69-2.05-5.71-2.93-12.03-5.18-22.57-7.31-32.58-7.31-15.47 0-30.17 5.66-39.34 15.13-9.17 9.47-13.62 22.78-12.51 37.45 1.62 21.4 14.53 32.46 21.49 36.12 6.24 3.28 11.72 4.85 16.74 4.85 7.61 0 14.06-2.83 18.59-8.16 6.23-7.32 9.55-19.36 6.55-27.24v.46c-2.66 7.86-9.45 14.85-15.81 16.45-3.55.89-7.6.42-12.05-1.93-7.62-4.01-15.99-12.71-17.13-27.72-.86-11.37 2.5-21.49 9.49-28.46 7.07-7.04 17.79-10.86 30.18-10.86 7.84 0 15.96 1.79 25.55 5.92.95.41 1.91.84 2.86 1.28v-3.09zM98.67 61.76l8.16 8.16c1.16 1.16 1.81 2.74 1.81 4.39 0 1.65-.65 3.23-1.81 4.39l-8.16 8.16-8.16-8.16c-1.16-1.16-1.81-2.74-1.81-4.39 0-1.65.65-3.23 1.81-4.39l8.16-8.16z"/>
</svg>
