<svg xmlns="http://www.w3.org/2000/svg" viewBox="0 0 256 256" aria-hidden="true">
  <path fill="#ea2845" d="M139.27 0c-1.37 0-2.7.06-3.93.18 26.32 1.74 32.96 12.13 32.96 23.61 0 9.07-7.21 15.62-19.42 15.62-1.96 0-4-.18-6.04-.55C129.91 35.82 116.43 25.6 99.5 25.6c-22.07 0-39.81 13.54-39.81 39.36 0 1.96.18 3.93.55 5.92-.55-.18-1.1-.18-1.65-.18-15.62 0-25.93 13.66-25.93 30.42 0 25.6 25.6 36.66 38.36 41.8 12.77 5.13 17.6 6.6 17.6 14.91 0 7.94-6.97 13.05-15.99 13.05-3.93 0-7.66-.92-10.85-2.39 1.84 14.36 14.18 22.62 27.78 22.62 25.05 0 38.72-19.97 38.72-44.97 0-7.39-1.84-14.36-5.13-20.71l-.18-.55c1.65-3.31 5.13-7.21 13.6-15.62 19.79-19.79 26.51-23.55 26.51-37.71 0-13.97-13.05-25.6-32.85-25.6-13.05 0-22.81 4.57-29.34 9.7l-.55-.55c1.84-2.21 11.45-13.97 32.16-13.97 22.45 0 39.81 12.43 39.81 31.5 0 23.91-19.97 41.8-19.97 50.61 0 5.13 3.93 9.06 9.42 9.06 1.84 0 3.5-.55 4.99-1.47-1.47 1.65-3.49 2.94-5.86 3.86 1.13.31 2.39.55 3.93.55 8.27 0 13.97-7.39 13.97-16.36 0-9.97-6.97-18.18-18.18-18.18-1.84 0-3.5.18-5.13.74C156.4 87.69 169.19 65.18 169.19 47c0-26.51-22.81-42.5-29.92-47z"/>
</svg>
