<svg xmlns="http://www.w3.org/2000/svg" viewBox="0 0 32 32" aria-hidden="true">
  <path fill="#000" d="M14.86 1.4c-.83 0-1.55.27-2.18.85-.62.57-.92 1.36-.92 2.34 0 .27.04.51.08.74.04.23.08.43.08.62 0 .39-.16.7-.43.93-.27.27-.66.62-1.16 1.05-.74.66-1.32 1.4-1.71 2.21-.39.78-.62 1.6-.62 2.46 0 .88.16 1.71.45 2.5.27.78.62 1.46 1.05 2.05.43.58.85 1.05 1.32 1.4.43.31.85.51 1.24.62-.39.16-.74.31-1.05.51-.31.16-.58.39-.78.66l-.43.62c-.16.27-.27.58-.39.93-.12.31-.16.66-.16 1.05 0 .85.31 1.55.93 2.13.62.55 1.36.83 2.21.83.39 0 .81-.04 1.24-.16.43-.08.83-.27 1.16-.5.51-.31.93-.7 1.24-1.16.27-.43.5-.85.62-1.32.16-.43.23-.85.27-1.24.04-.39.04-.7.04-.93 0-.27 0-.51-.04-.74-.04-.23-.04-.43-.08-.66.39.39.81.7 1.24.93.39.27.78.43 1.16.55l.93.27c.31.04.55.08.7.08.39 0 .74-.04 1.05-.16.31-.08.62-.19.85-.39l.62-.55c.16-.16.31-.39.43-.66s.19-.51.27-.85c.04-.31.08-.66.08-1.05 0-.45-.08-.85-.27-1.16-.16-.31-.39-.62-.62-.85l-.78-.66c-.27-.16-.55-.39-.85-.55l-.85-.55c-.27-.16-.55-.43-.78-.7-.16-.27-.31-.55-.43-.93-.08-.31-.12-.7-.12-1.16 0-.85-.12-1.6-.31-2.21-.23-.62-.51-1.16-.85-1.6-.31-.43-.7-.81-1.05-1.05-.39-.31-.74-.51-1.05-.74-.31-.16-.55-.31-.74-.43-.16-.16-.27-.31-.27-.43 0-.27 0-.43.04-.62.04-.16.04-.39.04-.62 0-.85-.12-1.6-.43-2.21-.31-.62-.7-1.05-1.16-1.4z"/>
</svg>
