<svg xmlns="http://www.w3.org/2000/svg" viewBox="0 0 32 32" aria-hidden="true" fill="#00add8">
  <path d="M16 .395c-8.836 0-16 7.163-16 16 0 8.835 7.164 16 16 16 8.837 0 16-7.165 16-16 0-8.837-7.163-16-16-16zm-1.176 14.06c0 .104-.054.13-.18.13H8.81c-.117 0-.155-.066-.13-.155l.4-.97c.04-.103.13-.155.235-.155h5.378c.13 0 .194.078.155.181zm-1.45 1.94c0 .117-.077.156-.181.156h-3.13c-.117 0-.155-.066-.13-.155l.39-.97c.04-.103.13-.155.245-.155h2.616c.13 0 .194.078.155.18zm5.52-1.94c.117 0 .143.078.117.181l-.41.97c-.04.103-.13.155-.245.155h-2.526c-.117 0-.143-.066-.117-.155l.41-.97c.04-.103.13-.155.245-.155h2.526zm.594 4.066c0 2.422-1.962 4.385-4.385 4.385-2.422 0-4.385-1.962-4.385-4.385 0-2.422 1.962-4.385 4.385-4.385 2.422 0 4.385 1.962 4.385 4.385z"/>
</svg>
