<svg xmlns="http://www.w3.org/2000/svg" viewBox="0 0 32 32" aria-hidden="true" fill="#4db33d">
  <path d="M22.797 13.663c-1.911-8.432-5.878-10.681-6.888-12.265a13.94 13.94 0 0 1-.88-1.398c-.043.598-.122.974-.633 1.428-1.025.913-5.379 4.46-5.745 12.146-.341 7.165 5.266 11.581 6.007 12.036.57.282 1.265.288 1.851.014 1.18-.547 5.578-4.011 6.327-11.961zM15.815 22.41c-.149.027-.196.041-.179-.114-.018-.001-.018.155-.018.155-.123-.046-.247-.092-.353-.151.061-1.215.063-2.425.087-3.633.001-.058 0-.117-.001-.183.005-.046.027-.064.052-.069.094-.013.151.151.151.151s.122 1.305.366 2.41c.04.176.063.367.046.547-.022.214-.082.422-.151.618z"/>
</svg>
