<svg xmlns="http://www.w3.org/2000/svg" viewBox="0 0 32 32" aria-hidden="true" fill="#f89820">
  <path d="M11.7 19.4s-1 .6.7.7c2 .3 3.1.3 5.4-.2.4.2 1 .5 1.7.6-5 2.2-11.3-.1-7.8-1.1zM11 16.3s-1.1.8.6 1c2.2.2 4 .2 7-.4.3.3.7.5 1.2.6-6 1.8-12.7.2-8.8-1.2zM23.1 21.5s.8.7-.8 1.2c-3 .8-12.5 1.1-15.1 0-1-.4.8-1 1.4-1.1.6-.1.9-.1.9-.1-1-.7-7 1.5-3 2.1 11.1 1.8 20.3-.8 16.6-2.1zM12.3 13s-5 1.2-1.7 1.6c1.4.2 4 .1 6.6-.1 2-.2 4.1-.5 4.1-.5s-.7.3-1.2.7c-5.1 1.4-15 .7-12.1-.6 2.5-1.2 4.3-1.1 4.3-1.1zM21.2 18s2.9 1.5-3.2 2.7c-3.4.7-7.5.5-9.9.1-1 0 .9-.6 1.5-.8.6-.2 1-.1 1-.1-1.2-.8-7.7 1.7-3.3 2.4 12 2 21.7-1 13.9-4.3zM12.1 9.8c.4 0 1.6 1.7 0 3.4 0 0 4.7-2.4 2.5-5.4-2-2.7-3.5-4.1 4.7-8.8 0 0-13.2 3.4-7.2 11zM13.1 28.2c2.9.2 7.4-.1 7.5-1.5 0 0-.2.6-2.4 1-2.5.5-5.7.4-7.5.1 0 0 .4.3 2.4.4z"/>
</svg>
