<svg xmlns="http://www.w3.org/2000/svg" viewBox="0 0 256 282" aria-hidden="true">
  <path fill="#539e43" d="M116.504 3.58c3.787-2.16 8.583-2.16 12.37 0l112.062 64.428c3.638 2.087 6.052 6.018 6.052 10.11v128.99c0 4.107-2.43 8.038-6.052 10.11l-112.062 64.428c-3.787 2.16-8.583 2.16-12.37 0L4.442 217.218C.804 215.146-1.622 211.215-1.622 207.108V78.118c0-4.107 2.43-8.038 6.052-10.11L116.504 3.58z"/>
  <path fill="#fff" d="M122.689 24.005c-2.21-1.16-4.881-1.16-7.087 0L64.155 53.488c-2.218 1.157-3.602 3.51-3.602 6.047v58.974c0 2.547 1.384 4.892 3.602 6.063l51.447 29.483c2.218 1.16 4.882 1.16 7.087 0l51.448-29.483c2.218-1.171 3.602-3.516 3.602-6.063V59.535c0-2.537-1.384-4.89-3.602-6.047l-51.448-29.483z"/>
</svg>
