<svg xmlns="http://www.w3.org/2000/svg" viewBox="0 0 32 32" aria-hidden="true" fill="#2496ed">
  <path d="M16.54 12.36h2.46v2.5h1.24c.57 0 1.16-.1 1.7-.29.27-.09.57-.22.83-.4-.35-.45-.52-1.02-.57-1.58-.07-.76.08-1.74.6-2.34l.26-.3.31.24c.78.62 1.43 1.5 1.55 2.5.92-.27 2.01-.21 2.82.26l.34.2-.18.35c-.7 1.37-2.18 1.79-3.6 1.72-2.13 5.31-6.78 7.83-12.41 7.83-2.91 0-5.58-1.09-7.1-3.67l-.02-.04-.22-.45c-.51-1.13-.69-2.36-.55-3.6l.04-.34h1.91v-2.5h2.46v-2.46h4.92V7.43h2.94v4.93h.07zM2.92 14.83h2.16v2.16H2.92zm2.65 0h2.16v2.16H5.57zm2.66 0h2.15v2.16H8.23zm2.65 0h2.16v2.16h-2.16zm-5.31-2.47h2.16v2.17H5.57zm2.66 0h2.15v2.17H8.23zm2.65 0h2.16v2.17h-2.16zm0-2.46h2.16v2.16h-2.16zm2.66 4.93h2.15v2.17h-2.15zm0-2.47h2.15v2.16h-2.15zm0-2.46h2.15v2.16h-2.15z"/>
</svg>
