<svg xmlns="http://www.w3.org/2000/svg" viewBox="0 0 32 32" aria-hidden="true" fill="#00758f">
  <path d="M5.46 24.84c-.94 0-1.7-.18-2.36-.49v.84c.59.32 1.34.5 2.36.5 1.94 0 3.45-.92 3.45-2.59 0-1.81-1.17-2.27-2.7-2.91-1.18-.5-1.69-.74-1.69-1.34 0-.5.39-.93 1.34-.93.49 0 .95.07 1.7.39v-.78a3.94 3.94 0 0 0-1.7-.34c-1.48 0-2.42.84-2.42 2.05 0 1.31 1.13 1.78 2.13 2.21 1.05.45 2.18.65 2.18 1.97 0 .95-.78 1.42-1.79 1.42zm15.11-1.34v-7.54h-.92v7.54c0 .43.16.93.78 1.06l1.4.31v-.71l-.93-.27c-.21-.06-.33-.13-.33-.39zm-7.42 0c-1.34 0-1.78-.93-1.78-2.21V18.31h-.92v3.09c0 1.42.62 2.91 2.7 2.91h.18l1.92-.06v-.78l-2.10.03zm-.83-3.7v-.93c0-.53.27-.78.84-.78h2.13v-.78h-1.95c-1.13 0-1.95.59-1.95 1.42v1.07h.93zm14.78-3.84l-2.05 6.13-1.95-6.13h-1.05v7.54h.85V18.7l1.78 5.84h.78l1.78-5.84v5.84h.85V15.96zm-7.65 0v.78h.93c.53 0 .78.27.78.84v6.7h.85v-6.84c0-.93-.5-1.48-1.62-1.48z"/>
</svg>
